<mxfile host="app.diagrams.net" modified="2022-08-17T13:13:48.800Z" agent="5.0 (Windows NT 10.0; Win64; x64) AppleWebKit/537.36 (KHTML, like Gecko) Chrome/104.0.0.0 Safari/537.36" etag="ePO0LkhI8kB1dViqNbzf" version="20.2.4" type="github">
  <diagram id="WiaD8SYE7pi_qJ4heCow" name="第 1 页">
    <mxGraphModel dx="1278" dy="539" grid="1" gridSize="10" guides="1" tooltips="1" connect="1" arrows="1" fold="1" page="1" pageScale="1" pageWidth="827" pageHeight="1169" math="0" shadow="0">
      <root>
        <mxCell id="0" />
        <mxCell id="1" parent="0" />
        <mxCell id="1RGi1clW2f9QPrBDDDvs-1" value="工单流转" style="swimlane;childLayout=stackLayout;resizeParent=1;resizeParentMax=0;startSize=20;" parent="1" vertex="1">
          <mxGeometry width="820" height="1160" as="geometry" />
        </mxCell>
        <mxCell id="1RGi1clW2f9QPrBDDDvs-2" value="一线" style="swimlane;startSize=20;" parent="1RGi1clW2f9QPrBDDDvs-1" vertex="1">
          <mxGeometry y="20" width="250" height="1140" as="geometry" />
        </mxCell>
        <mxCell id="1RGi1clW2f9QPrBDDDvs-7" style="edgeStyle=orthogonalEdgeStyle;rounded=0;orthogonalLoop=1;jettySize=auto;html=1;exitX=0.5;exitY=1;exitDx=0;exitDy=0;entryX=0.5;entryY=0;entryDx=0;entryDy=0;" parent="1RGi1clW2f9QPrBDDDvs-2" source="1RGi1clW2f9QPrBDDDvs-5" target="1RGi1clW2f9QPrBDDDvs-6" edge="1">
          <mxGeometry relative="1" as="geometry" />
        </mxCell>
        <mxCell id="1RGi1clW2f9QPrBDDDvs-5" value="发起工单请求" style="rounded=1;whiteSpace=wrap;html=1;" parent="1RGi1clW2f9QPrBDDDvs-2" vertex="1">
          <mxGeometry x="68" y="50" width="100" height="30" as="geometry" />
        </mxCell>
        <mxCell id="1RGi1clW2f9QPrBDDDvs-9" style="edgeStyle=orthogonalEdgeStyle;rounded=0;orthogonalLoop=1;jettySize=auto;html=1;exitX=0.5;exitY=1;exitDx=0;exitDy=0;" parent="1RGi1clW2f9QPrBDDDvs-2" source="1RGi1clW2f9QPrBDDDvs-6" target="1RGi1clW2f9QPrBDDDvs-8" edge="1">
          <mxGeometry relative="1" as="geometry" />
        </mxCell>
        <mxCell id="1RGi1clW2f9QPrBDDDvs-6" value="选择项目" style="rounded=0;whiteSpace=wrap;html=1;" parent="1RGi1clW2f9QPrBDDDvs-2" vertex="1">
          <mxGeometry x="68" y="120" width="100" height="30" as="geometry" />
        </mxCell>
        <mxCell id="1RGi1clW2f9QPrBDDDvs-11" style="edgeStyle=orthogonalEdgeStyle;rounded=0;orthogonalLoop=1;jettySize=auto;html=1;exitX=0.5;exitY=1;exitDx=0;exitDy=0;entryX=0.5;entryY=0;entryDx=0;entryDy=0;" parent="1RGi1clW2f9QPrBDDDvs-2" source="1RGi1clW2f9QPrBDDDvs-8" target="1RGi1clW2f9QPrBDDDvs-10" edge="1">
          <mxGeometry relative="1" as="geometry" />
        </mxCell>
        <mxCell id="1RGi1clW2f9QPrBDDDvs-8" value="选择产品类型&lt;br&gt;及问题分类" style="rounded=0;whiteSpace=wrap;html=1;" parent="1RGi1clW2f9QPrBDDDvs-2" vertex="1">
          <mxGeometry x="68" y="180" width="100" height="40" as="geometry" />
        </mxCell>
        <mxCell id="1RGi1clW2f9QPrBDDDvs-14" style="edgeStyle=orthogonalEdgeStyle;rounded=0;orthogonalLoop=1;jettySize=auto;html=1;exitX=0.5;exitY=1;exitDx=0;exitDy=0;" parent="1RGi1clW2f9QPrBDDDvs-2" source="1RGi1clW2f9QPrBDDDvs-10" target="1RGi1clW2f9QPrBDDDvs-13" edge="1">
          <mxGeometry relative="1" as="geometry" />
        </mxCell>
        <mxCell id="1RGi1clW2f9QPrBDDDvs-10" value="填写工单&lt;br&gt;字段信息" style="rounded=0;whiteSpace=wrap;html=1;" parent="1RGi1clW2f9QPrBDDDvs-2" vertex="1">
          <mxGeometry x="68" y="250" width="100" height="40" as="geometry" />
        </mxCell>
        <mxCell id="1RGi1clW2f9QPrBDDDvs-17" style="edgeStyle=orthogonalEdgeStyle;rounded=0;orthogonalLoop=1;jettySize=auto;html=1;exitX=0.5;exitY=1;exitDx=0;exitDy=0;entryX=0.5;entryY=0;entryDx=0;entryDy=0;" parent="1RGi1clW2f9QPrBDDDvs-2" source="1RGi1clW2f9QPrBDDDvs-13" target="1RGi1clW2f9QPrBDDDvs-16" edge="1">
          <mxGeometry relative="1" as="geometry" />
        </mxCell>
        <mxCell id="1RGi1clW2f9QPrBDDDvs-13" value="提交工单" style="rounded=0;whiteSpace=wrap;html=1;" parent="1RGi1clW2f9QPrBDDDvs-2" vertex="1">
          <mxGeometry x="68" y="320" width="100" height="30" as="geometry" />
        </mxCell>
        <mxCell id="1RGi1clW2f9QPrBDDDvs-19" style="edgeStyle=orthogonalEdgeStyle;rounded=0;orthogonalLoop=1;jettySize=auto;html=1;exitX=0.5;exitY=1;exitDx=0;exitDy=0;" parent="1RGi1clW2f9QPrBDDDvs-2" source="1RGi1clW2f9QPrBDDDvs-16" target="1RGi1clW2f9QPrBDDDvs-18" edge="1">
          <mxGeometry relative="1" as="geometry" />
        </mxCell>
        <mxCell id="1RGi1clW2f9QPrBDDDvs-16" value="工单受理" style="rounded=0;whiteSpace=wrap;html=1;" parent="1RGi1clW2f9QPrBDDDvs-2" vertex="1">
          <mxGeometry x="68" y="380" width="100" height="30" as="geometry" />
        </mxCell>
        <mxCell id="1RGi1clW2f9QPrBDDDvs-18" value="是否转派" style="rhombus;whiteSpace=wrap;html=1;" parent="1RGi1clW2f9QPrBDDDvs-2" vertex="1">
          <mxGeometry x="68" y="450" width="100" height="50" as="geometry" />
        </mxCell>
        <mxCell id="1RGi1clW2f9QPrBDDDvs-27" style="edgeStyle=orthogonalEdgeStyle;rounded=0;orthogonalLoop=1;jettySize=auto;html=1;exitX=0.5;exitY=1;exitDx=0;exitDy=0;" parent="1RGi1clW2f9QPrBDDDvs-2" source="1RGi1clW2f9QPrBDDDvs-18" target="1RGi1clW2f9QPrBDDDvs-26" edge="1">
          <mxGeometry relative="1" as="geometry">
            <mxPoint x="118" y="540" as="sourcePoint" />
          </mxGeometry>
        </mxCell>
        <mxCell id="1RGi1clW2f9QPrBDDDvs-29" style="edgeStyle=orthogonalEdgeStyle;rounded=0;orthogonalLoop=1;jettySize=auto;html=1;exitX=0.5;exitY=1;exitDx=0;exitDy=0;entryX=0.5;entryY=0;entryDx=0;entryDy=0;" parent="1RGi1clW2f9QPrBDDDvs-2" source="1RGi1clW2f9QPrBDDDvs-26" target="1RGi1clW2f9QPrBDDDvs-28" edge="1">
          <mxGeometry relative="1" as="geometry" />
        </mxCell>
        <mxCell id="1RGi1clW2f9QPrBDDDvs-26" value="记录最新进展情况" style="rounded=0;whiteSpace=wrap;html=1;" parent="1RGi1clW2f9QPrBDDDvs-2" vertex="1">
          <mxGeometry x="68" y="680" width="100" height="30" as="geometry" />
        </mxCell>
        <mxCell id="1RGi1clW2f9QPrBDDDvs-30" style="edgeStyle=orthogonalEdgeStyle;rounded=0;orthogonalLoop=1;jettySize=auto;html=1;exitX=1;exitY=0.5;exitDx=0;exitDy=0;entryX=1;entryY=0.5;entryDx=0;entryDy=0;" parent="1RGi1clW2f9QPrBDDDvs-2" source="1RGi1clW2f9QPrBDDDvs-28" target="1RGi1clW2f9QPrBDDDvs-26" edge="1">
          <mxGeometry relative="1" as="geometry" />
        </mxCell>
        <mxCell id="1RGi1clW2f9QPrBDDDvs-28" value="问题是否解决" style="rhombus;whiteSpace=wrap;html=1;" parent="1RGi1clW2f9QPrBDDDvs-2" vertex="1">
          <mxGeometry x="68" y="780" width="100" height="50" as="geometry" />
        </mxCell>
        <mxCell id="1RGi1clW2f9QPrBDDDvs-32" value="单据完结（结束）" style="rounded=1;whiteSpace=wrap;html=1;" parent="1RGi1clW2f9QPrBDDDvs-2" vertex="1">
          <mxGeometry x="68" y="1000" width="100" height="30" as="geometry" />
        </mxCell>
        <mxCell id="1RGi1clW2f9QPrBDDDvs-33" value="填写解决方案" style="rounded=0;whiteSpace=wrap;html=1;" parent="1RGi1clW2f9QPrBDDDvs-2" vertex="1">
          <mxGeometry x="68" y="890" width="100" height="30" as="geometry" />
        </mxCell>
        <mxCell id="1RGi1clW2f9QPrBDDDvs-34" style="edgeStyle=orthogonalEdgeStyle;rounded=0;orthogonalLoop=1;jettySize=auto;html=1;exitX=0.5;exitY=1;exitDx=0;exitDy=0;" parent="1RGi1clW2f9QPrBDDDvs-2" source="1RGi1clW2f9QPrBDDDvs-28" target="1RGi1clW2f9QPrBDDDvs-33" edge="1">
          <mxGeometry relative="1" as="geometry" />
        </mxCell>
        <mxCell id="1RGi1clW2f9QPrBDDDvs-35" style="edgeStyle=orthogonalEdgeStyle;rounded=0;orthogonalLoop=1;jettySize=auto;html=1;exitX=0.5;exitY=1;exitDx=0;exitDy=0;entryX=0.5;entryY=0;entryDx=0;entryDy=0;" parent="1RGi1clW2f9QPrBDDDvs-2" source="1RGi1clW2f9QPrBDDDvs-33" target="1RGi1clW2f9QPrBDDDvs-32" edge="1">
          <mxGeometry relative="1" as="geometry" />
        </mxCell>
        <mxCell id="1RGi1clW2f9QPrBDDDvs-3" value="二线" style="swimlane;startSize=20;" parent="1RGi1clW2f9QPrBDDDvs-1" vertex="1">
          <mxGeometry x="250" y="20" width="280" height="1140" as="geometry" />
        </mxCell>
        <mxCell id="1RGi1clW2f9QPrBDDDvs-39" style="edgeStyle=orthogonalEdgeStyle;rounded=0;orthogonalLoop=1;jettySize=auto;html=1;exitX=0.5;exitY=1;exitDx=0;exitDy=0;entryX=0.5;entryY=0;entryDx=0;entryDy=0;" parent="1RGi1clW2f9QPrBDDDvs-3" source="1RGi1clW2f9QPrBDDDvs-36" target="1RGi1clW2f9QPrBDDDvs-38" edge="1">
          <mxGeometry relative="1" as="geometry" />
        </mxCell>
        <mxCell id="1RGi1clW2f9QPrBDDDvs-36" value="事件/问题判断" style="rounded=0;whiteSpace=wrap;html=1;" parent="1RGi1clW2f9QPrBDDDvs-3" vertex="1">
          <mxGeometry x="90" y="460" width="100" height="30" as="geometry" />
        </mxCell>
        <mxCell id="1RGi1clW2f9QPrBDDDvs-41" style="edgeStyle=orthogonalEdgeStyle;rounded=0;orthogonalLoop=1;jettySize=auto;html=1;exitX=0.5;exitY=1;exitDx=0;exitDy=0;entryX=0.5;entryY=0;entryDx=0;entryDy=0;" parent="1RGi1clW2f9QPrBDDDvs-3" source="1RGi1clW2f9QPrBDDDvs-38" target="1RGi1clW2f9QPrBDDDvs-42" edge="1">
          <mxGeometry relative="1" as="geometry">
            <mxPoint x="140.04347826086973" y="580" as="targetPoint" />
          </mxGeometry>
        </mxCell>
        <mxCell id="1RGi1clW2f9QPrBDDDvs-38" value="是否转派" style="rhombus;whiteSpace=wrap;html=1;" parent="1RGi1clW2f9QPrBDDDvs-3" vertex="1">
          <mxGeometry x="90" y="520" width="100" height="50" as="geometry" />
        </mxCell>
        <mxCell id="1RGi1clW2f9QPrBDDDvs-47" style="edgeStyle=orthogonalEdgeStyle;rounded=0;orthogonalLoop=1;jettySize=auto;html=1;exitX=0.5;exitY=1;exitDx=0;exitDy=0;entryX=0.5;entryY=0;entryDx=0;entryDy=0;" parent="1RGi1clW2f9QPrBDDDvs-3" source="1RGi1clW2f9QPrBDDDvs-42" target="1RGi1clW2f9QPrBDDDvs-43" edge="1">
          <mxGeometry relative="1" as="geometry" />
        </mxCell>
        <mxCell id="1RGi1clW2f9QPrBDDDvs-42" value="记录最新进展情况" style="rounded=0;whiteSpace=wrap;html=1;" parent="1RGi1clW2f9QPrBDDDvs-3" vertex="1">
          <mxGeometry x="90" y="680" width="100" height="30" as="geometry" />
        </mxCell>
        <mxCell id="1RGi1clW2f9QPrBDDDvs-48" style="edgeStyle=orthogonalEdgeStyle;rounded=0;orthogonalLoop=1;jettySize=auto;html=1;exitX=0.5;exitY=1;exitDx=0;exitDy=0;" parent="1RGi1clW2f9QPrBDDDvs-3" source="1RGi1clW2f9QPrBDDDvs-43" target="1RGi1clW2f9QPrBDDDvs-45" edge="1">
          <mxGeometry relative="1" as="geometry" />
        </mxCell>
        <mxCell id="1RGi1clW2f9QPrBDDDvs-50" style="edgeStyle=orthogonalEdgeStyle;rounded=0;orthogonalLoop=1;jettySize=auto;html=1;exitX=1;exitY=0.5;exitDx=0;exitDy=0;entryX=1;entryY=0.5;entryDx=0;entryDy=0;" parent="1RGi1clW2f9QPrBDDDvs-3" source="1RGi1clW2f9QPrBDDDvs-43" target="1RGi1clW2f9QPrBDDDvs-42" edge="1">
          <mxGeometry relative="1" as="geometry" />
        </mxCell>
        <mxCell id="1RGi1clW2f9QPrBDDDvs-43" value="问题是否解决" style="rhombus;whiteSpace=wrap;html=1;" parent="1RGi1clW2f9QPrBDDDvs-3" vertex="1">
          <mxGeometry x="90" y="780" width="100" height="50" as="geometry" />
        </mxCell>
        <mxCell id="1RGi1clW2f9QPrBDDDvs-44" value="单据完结（结束）" style="rounded=1;whiteSpace=wrap;html=1;" parent="1RGi1clW2f9QPrBDDDvs-3" vertex="1">
          <mxGeometry x="90" y="1000" width="100" height="30" as="geometry" />
        </mxCell>
        <mxCell id="1RGi1clW2f9QPrBDDDvs-49" style="edgeStyle=orthogonalEdgeStyle;rounded=0;orthogonalLoop=1;jettySize=auto;html=1;exitX=0.5;exitY=1;exitDx=0;exitDy=0;entryX=0.5;entryY=0;entryDx=0;entryDy=0;" parent="1RGi1clW2f9QPrBDDDvs-3" source="1RGi1clW2f9QPrBDDDvs-45" target="1RGi1clW2f9QPrBDDDvs-44" edge="1">
          <mxGeometry relative="1" as="geometry" />
        </mxCell>
        <mxCell id="1RGi1clW2f9QPrBDDDvs-45" value="填写解决方案" style="rounded=0;whiteSpace=wrap;html=1;" parent="1RGi1clW2f9QPrBDDDvs-3" vertex="1">
          <mxGeometry x="90" y="890" width="100" height="30" as="geometry" />
        </mxCell>
        <mxCell id="1RGi1clW2f9QPrBDDDvs-37" style="edgeStyle=orthogonalEdgeStyle;rounded=0;orthogonalLoop=1;jettySize=auto;html=1;exitX=1;exitY=0.5;exitDx=0;exitDy=0;" parent="1RGi1clW2f9QPrBDDDvs-1" source="1RGi1clW2f9QPrBDDDvs-18" target="1RGi1clW2f9QPrBDDDvs-36" edge="1">
          <mxGeometry relative="1" as="geometry" />
        </mxCell>
        <mxCell id="1RGi1clW2f9QPrBDDDvs-67" style="edgeStyle=orthogonalEdgeStyle;rounded=0;orthogonalLoop=1;jettySize=auto;html=1;exitX=1;exitY=0.5;exitDx=0;exitDy=0;entryX=0;entryY=0.5;entryDx=0;entryDy=0;" parent="1RGi1clW2f9QPrBDDDvs-1" source="1RGi1clW2f9QPrBDDDvs-38" target="1RGi1clW2f9QPrBDDDvs-53" edge="1">
          <mxGeometry relative="1" as="geometry" />
        </mxCell>
        <mxCell id="1RGi1clW2f9QPrBDDDvs-69" style="edgeStyle=orthogonalEdgeStyle;rounded=0;orthogonalLoop=1;jettySize=auto;html=1;exitX=0;exitY=0.5;exitDx=0;exitDy=0;entryX=0.5;entryY=0;entryDx=0;entryDy=0;" parent="1RGi1clW2f9QPrBDDDvs-1" source="1RGi1clW2f9QPrBDDDvs-55" target="1RGi1clW2f9QPrBDDDvs-42" edge="1">
          <mxGeometry relative="1" as="geometry" />
        </mxCell>
        <mxCell id="1RGi1clW2f9QPrBDDDvs-70" value="驳回" style="edgeLabel;html=1;align=center;verticalAlign=middle;resizable=0;points=[];" parent="1RGi1clW2f9QPrBDDDvs-69" vertex="1" connectable="0">
          <mxGeometry x="-0.2514" y="1" relative="1" as="geometry">
            <mxPoint as="offset" />
          </mxGeometry>
        </mxCell>
        <mxCell id="1RGi1clW2f9QPrBDDDvs-71" style="edgeStyle=orthogonalEdgeStyle;rounded=0;orthogonalLoop=1;jettySize=auto;html=1;exitX=0;exitY=0.5;exitDx=0;exitDy=0;entryX=0.5;entryY=0;entryDx=0;entryDy=0;" parent="1RGi1clW2f9QPrBDDDvs-1" source="1RGi1clW2f9QPrBDDDvs-38" target="1RGi1clW2f9QPrBDDDvs-26" edge="1">
          <mxGeometry relative="1" as="geometry" />
        </mxCell>
        <mxCell id="1RGi1clW2f9QPrBDDDvs-72" value="驳回" style="edgeLabel;html=1;align=center;verticalAlign=middle;resizable=0;points=[];" parent="1RGi1clW2f9QPrBDDDvs-71" vertex="1" connectable="0">
          <mxGeometry x="-0.1023" y="-3" relative="1" as="geometry">
            <mxPoint as="offset" />
          </mxGeometry>
        </mxCell>
        <mxCell id="1RGi1clW2f9QPrBDDDvs-74" style="edgeStyle=orthogonalEdgeStyle;rounded=0;orthogonalLoop=1;jettySize=auto;html=1;exitX=0.5;exitY=1;exitDx=0;exitDy=0;entryX=0.5;entryY=0;entryDx=0;entryDy=0;" parent="1RGi1clW2f9QPrBDDDvs-1" source="1RGi1clW2f9QPrBDDDvs-62" target="1RGi1clW2f9QPrBDDDvs-45" edge="1">
          <mxGeometry relative="1" as="geometry" />
        </mxCell>
        <mxCell id="1RGi1clW2f9QPrBDDDvs-4" value="三线" style="swimlane;startSize=20;" parent="1RGi1clW2f9QPrBDDDvs-1" vertex="1">
          <mxGeometry x="530" y="20" width="290" height="1140" as="geometry" />
        </mxCell>
        <mxCell id="1RGi1clW2f9QPrBDDDvs-53" value="事件/问题判断" style="rounded=0;whiteSpace=wrap;html=1;" parent="1RGi1clW2f9QPrBDDDvs-4" vertex="1">
          <mxGeometry x="103" y="530" width="100" height="30" as="geometry" />
        </mxCell>
        <mxCell id="1RGi1clW2f9QPrBDDDvs-55" value="是否转派" style="rhombus;whiteSpace=wrap;html=1;" parent="1RGi1clW2f9QPrBDDDvs-4" vertex="1">
          <mxGeometry x="103" y="590" width="100" height="50" as="geometry" />
        </mxCell>
        <mxCell id="1RGi1clW2f9QPrBDDDvs-52" style="edgeStyle=orthogonalEdgeStyle;rounded=0;orthogonalLoop=1;jettySize=auto;html=1;exitX=0.5;exitY=1;exitDx=0;exitDy=0;entryX=0.5;entryY=0;entryDx=0;entryDy=0;" parent="1RGi1clW2f9QPrBDDDvs-4" source="1RGi1clW2f9QPrBDDDvs-53" target="1RGi1clW2f9QPrBDDDvs-55" edge="1">
          <mxGeometry relative="1" as="geometry" />
        </mxCell>
        <mxCell id="1RGi1clW2f9QPrBDDDvs-54" style="edgeStyle=orthogonalEdgeStyle;rounded=0;orthogonalLoop=1;jettySize=auto;html=1;exitX=0.5;exitY=1;exitDx=0;exitDy=0;entryX=0.5;entryY=0;entryDx=0;entryDy=0;" parent="1RGi1clW2f9QPrBDDDvs-4" source="1RGi1clW2f9QPrBDDDvs-55" target="1RGi1clW2f9QPrBDDDvs-59" edge="1">
          <mxGeometry relative="1" as="geometry">
            <mxPoint x="153" y="650" as="targetPoint" />
          </mxGeometry>
        </mxCell>
        <mxCell id="1RGi1clW2f9QPrBDDDvs-59" value="记录最新进展情况" style="rounded=0;whiteSpace=wrap;html=1;" parent="1RGi1clW2f9QPrBDDDvs-4" vertex="1">
          <mxGeometry x="103" y="680" width="100" height="30" as="geometry" />
        </mxCell>
        <mxCell id="1RGi1clW2f9QPrBDDDvs-61" style="edgeStyle=orthogonalEdgeStyle;rounded=0;orthogonalLoop=1;jettySize=auto;html=1;exitX=1;exitY=0.5;exitDx=0;exitDy=0;entryX=1;entryY=0.5;entryDx=0;entryDy=0;" parent="1RGi1clW2f9QPrBDDDvs-4" source="1RGi1clW2f9QPrBDDDvs-62" target="1RGi1clW2f9QPrBDDDvs-59" edge="1">
          <mxGeometry relative="1" as="geometry" />
        </mxCell>
        <mxCell id="1RGi1clW2f9QPrBDDDvs-62" value="问题是否解决" style="rhombus;whiteSpace=wrap;html=1;" parent="1RGi1clW2f9QPrBDDDvs-4" vertex="1">
          <mxGeometry x="103" y="770" width="100" height="50" as="geometry" />
        </mxCell>
        <mxCell id="1RGi1clW2f9QPrBDDDvs-58" style="edgeStyle=orthogonalEdgeStyle;rounded=0;orthogonalLoop=1;jettySize=auto;html=1;exitX=0.5;exitY=1;exitDx=0;exitDy=0;entryX=0.5;entryY=0;entryDx=0;entryDy=0;" parent="1RGi1clW2f9QPrBDDDvs-4" source="1RGi1clW2f9QPrBDDDvs-59" target="1RGi1clW2f9QPrBDDDvs-62" edge="1">
          <mxGeometry relative="1" as="geometry" />
        </mxCell>
      </root>
    </mxGraphModel>
  </diagram>
</mxfile>
